{
  "asset" : {
    "generator" : "UE Viewer (umodel) build 1590",
    "version" : "2.0"
  },
  "scene" : 0,
  "scenes" : [
    {
      "nodes" : [ 0 ]
    }
  ],
  "nodes" : [
    {
      "name" : "1M_Cube",
      "mesh" : 0
    }
  ],
  "materials" : [
    {
      "name" : "CubeMaterial",
      "pbrMetallicRoughness" : {
        "baseColorFactor" : [ 0.3, 0.3, 0.3, 1.0 ],
        "metallicFactor" : 0.1,
        "roughnessFactor" : 0.5
      }
    }
  ],
  "meshes" : [
    {
      "primitives" : [
        {
          "attributes" : {
            "POSITION" : 1,
            "NORMAL" : 2,
            "TANGENT" : 3,
            "TEXCOORD_0" : 4
          },
          "indices" : 0,
          "material" : 0
        }
      ],
      "name" : "1M_Cube"
    }
  ],
  "buffers" : [
    {
      "uri" : "1M_Cube.bin",
      "byteLength" : 1800
    }
  ],
  "bufferViews" : [
    {
      "buffer" : 0,
      "byteOffset" : 0,
      "byteLength" : 72
    },
    {
      "buffer" : 0,
      "byteOffset" : 72,
      "byteLength" : 432
    },
    {
      "buffer" : 0,
      "byteOffset" : 504,
      "byteLength" : 432
    },
    {
      "buffer" : 0,
      "byteOffset" : 936,
      "byteLength" : 576
    },
    {
      "buffer" : 0,
      "byteOffset" : 1512,
      "byteLength" : 288
    }
  ],
  "accessors" : [
    {
      "bufferView" : 0,
      "componentType" : 5123,
      "count" : 36,
      "type" : "SCALAR"
    },
    {
      "bufferView" : 1,
      "min" : [ -0.5, -0.5, -0.5 ],
      "max" : [ 0.5, 0.5, 0.5 ],
      "componentType" : 5126,
      "count" : 36,
      "type" : "VEC3"
    },
    {
      "bufferView" : 2,
      "componentType" : 5126,
      "count" : 36,
      "type" : "VEC3"
    },
    {
      "bufferView" : 3,
      "componentType" : 5126,
      "count" : 36,
      "type" : "VEC4"
    },
    {
      "bufferView" : 4,
      "componentType" : 5126,
      "count" : 36,
      "type" : "VEC2"
    }
  ]
}
